<svg xmlns="http://www.w3.org/2000/svg" viewBox="0 0 100 100" width="100" height="100">
  <defs>
    <pattern id="dotPattern" x="0" y="0" width="20" height="20" patternUnits="userSpaceOnUse">
      <circle cx="10" cy="10" r="2.5" fill="#FF7B00" opacity="0.15"/>
    </pattern>
  </defs>
  <rect width="100" height="100" fill="#FFFFFF"/>
  <rect width="100" height="100" fill="url(#dotPattern)"/>
  <!-- Accent dots at alternating positions -->
  <circle cx="10" cy="10" r="2.5" fill="#FF7B00" opacity="0.15"/>
  <circle cx="30" cy="10" r="2.5" fill="#FF7B00" opacity="0.15"/>
  <circle cx="50" cy="10" r="2.5" fill="#12B8DF" opacity="0.12"/>
  <circle cx="70" cy="10" r="2.5" fill="#FF7B00" opacity="0.15"/>
  <circle cx="90" cy="10" r="2.5" fill="#FF7B00" opacity="0.15"/>
  <circle cx="10" cy="30" r="2.5" fill="#FF7B00" opacity="0.15"/>
  <circle cx="30" cy="30" r="2.5" fill="#FF7B00" opacity="0.15"/>
  <circle cx="50" cy="30" r="2.5" fill="#FF7B00" opacity="0.15"/>
  <circle cx="70" cy="30" r="2.5" fill="#FF7B00" opacity="0.15"/>
  <circle cx="90" cy="30" r="2.5" fill="#12B8DF" opacity="0.12"/>
  <circle cx="10" cy="50" r="2.5" fill="#12B8DF" opacity="0.12"/>
  <circle cx="30" cy="50" r="2.5" fill="#FF7B00" opacity="0.15"/>
  <circle cx="50" cy="50" r="2.5" fill="#FFC107" opacity="0.15"/>
  <circle cx="70" cy="50" r="2.5" fill="#FF7B00" opacity="0.15"/>
  <circle cx="90" cy="50" r="2.5" fill="#FF7B00" opacity="0.15"/>
  <circle cx="10" cy="70" r="2.5" fill="#FF7B00" opacity="0.15"/>
  <circle cx="30" cy="70" r="2.5" fill="#FF7B00" opacity="0.15"/>
  <circle cx="50" cy="70" r="2.5" fill="#FF7B00" opacity="0.15"/>
  <circle cx="70" cy="70" r="2.5" fill="#FF7B00" opacity="0.15"/>
  <circle cx="90" cy="70" r="2.5" fill="#FF7B00" opacity="0.15"/>
  <circle cx="10" cy="90" r="2.5" fill="#FF7B00" opacity="0.15"/>
  <circle cx="30" cy="90" r="2.5" fill="#12B8DF" opacity="0.12"/>
  <circle cx="50" cy="90" r="2.5" fill="#FF7B00" opacity="0.15"/>
  <circle cx="70" cy="90" r="2.5" fill="#FF7B00" opacity="0.15"/>
  <circle cx="90" cy="90" r="2.5" fill="#FFC107" opacity="0.15"/>
</svg>
