<svg xmlns="http://www.w3.org/2000/svg" viewBox="-8 -8 1081 1134" fill="none">
  <!-- DigiFemmes Symbol — 3 Silhouettes -->
  <title>DigiFemmes Côte d'Ivoire — Symbol</title>
<mask id="path-1-outside-1_82_2" maskUnits="userSpaceOnUse" x="-0.999756" y="-0.000488281" width="1065" height="1118" fill="black">
<rect fill="white" x="-0.999756" y="-0.000488281" width="1065" height="1118"/>
<path d="M1043.03 519.555C1035.3 469.886 1023.01 421.136 994.326 378.145C957.9 323.634 899.601 313.951 847.191 353.603C817.579 375.975 796.8 405.526 778.125 436.746C774.844 442.172 771.142 447.514 766.095 455.445C762.057 446.68 759.869 441.003 756.841 435.744C740.773 407.946 727.061 378.312 707.544 353.102C684.83 323.718 649.581 321.798 619.296 343.836C610.211 350.431 600.873 357.944 594.563 366.959C572.186 398.931 551.07 431.654 529.619 464.21C526.674 468.634 524.319 473.392 520.281 480.488C506.821 454.026 496.726 429.15 482.172 407.279C464.758 381.234 445.914 355.272 423.2 333.735C401.496 313.117 372.304 313.951 350.348 334.403C332.177 351.432 317.707 373.053 303.911 394.173C293.311 410.451 286.413 429.149 276.149 450.186C269.84 441.337 266.138 434.826 261.343 429.483C238.125 404.106 216.336 376.976 190.342 354.605C176.293 342.417 155.514 334.737 136.67 331.732C96.7102 325.471 70.7997 349.095 53.4699 381.401C18.7262 446.179 7.11682 516.633 8.12632 589.091C8.7152 627.908 13.342 666.725 17.5483 705.375C26.4656 786.347 43.7956 865.567 76.352 940.696C101.169 997.961 133.978 1049.88 186.303 1086.95C231.142 1118.84 274.383 1116 314.174 1077.93C323.932 1068.58 333.523 1058.32 340.169 1046.71C358.929 1013.91 376.258 980.181 394.009 946.873C396.785 941.698 399.309 936.439 403.599 927.841C413.694 954.47 420.845 977.676 431.276 999.297C445.241 1028.18 459.458 1057.4 477.798 1083.61C499.165 1114.16 529.534 1117.42 559.399 1094.79C572.775 1084.69 585.562 1072.09 593.975 1057.81C610.211 1030.18 623.166 1000.55 637.383 971.75C639.907 966.658 642.178 961.315 645.88 953.301C650.759 962.651 653.956 968.577 656.984 974.588C677.343 1013.99 700.729 1051.39 735.221 1080.44C778.882 1117.42 823.72 1118.5 868.054 1082.94C902.882 1055.14 926.269 1018.16 947.384 979.93C986.419 909.309 1013.51 834.013 1033.61 756.212C1053.89 677.911 1055.06 598.858 1042.95 519.472L1043.03 519.555ZM50.1889 723.072C45.1414 675.406 41.1034 627.658 36.7288 579.993C36.4765 523.562 48.4224 469.719 69.4537 418.047C96.542 351.182 135.913 341.749 187.902 392.086C214.401 417.797 234.76 449.852 257.137 479.653C260.25 483.827 261.259 491.841 259.493 496.933C227.946 590.427 196.399 684.005 163.421 776.998C156.523 796.365 144.998 814.646 132.8 831.425C118.499 851.126 105.796 850.541 90.7374 831.174C65.9204 799.453 54.4792 762.389 50.3571 723.155L50.1889 723.072ZM385.68 884.766C364.986 938.526 344.459 992.368 308.874 1038.86C306.855 1041.54 304.668 1044.21 302.396 1046.71C268.242 1085.53 236.779 1088.87 196.062 1056.56C145.503 1016.49 116.48 961.816 94.0181 903.131C90.1484 892.864 86.9517 882.346 82.5772 868.906C122.032 880.259 142.474 876.085 160.645 843.863C182.686 804.796 200.857 763.141 216.504 721.068C237.872 664.137 255.202 605.703 274.299 547.937C275.981 542.929 278 537.92 283.721 532.577C288.263 544.431 293.563 556.118 297.181 568.222C326.877 668.144 356.237 768.149 385.428 868.155C386.858 873.33 387.447 879.842 385.596 884.683L385.68 884.766ZM407.553 820.573C405.786 820.573 404.104 820.406 402.337 820.322C388.372 771.155 375.585 721.569 360.106 672.819C341.178 612.715 319.895 553.28 300.041 493.343C298.358 488.502 297.517 481.74 299.704 477.399C315.099 444.76 331.336 412.538 347.572 380.399C349.759 375.891 353.545 372.135 356.994 368.295C377.857 344.921 396.028 342.334 414.956 366.458C437.922 395.508 455.504 428.565 475.863 459.702C501.689 498.853 502.278 536.918 484.948 581.662C457.187 653.452 437.417 728.414 414.199 801.957C412.18 808.218 409.824 814.229 407.553 820.406V820.573ZM618.202 936.272C601.714 971.416 588.927 1008.9 568.064 1041.29C535.087 1092.46 508.251 1091.54 483.686 1038.7C460.72 989.196 442.717 937.44 423.032 886.52C421.181 881.761 422.191 875.167 423.873 869.991C453.317 776.497 483.097 683.086 512.878 589.676C514.56 584.333 516.748 579.241 518.767 574.066C520.281 573.815 521.879 573.648 523.393 573.314C530.292 592.764 538.031 611.964 544.088 631.748C569.157 714.807 593.049 798.201 619.128 880.927C625.269 900.46 626.952 917.907 618.287 936.272H618.202ZM650.002 825.665C648.404 832.51 646.3 839.355 644.534 846.2C642.851 846.2 641.085 846.2 639.402 846.2C634.27 828.002 629.812 809.637 624.091 791.606C597.171 707.378 569.578 623.484 543.247 539.005C540.219 529.238 540.134 516.55 544.004 507.2C561.755 462.874 586.571 422.555 617.95 386.242C619.38 384.489 620.81 382.736 622.325 381.067C651.348 350.932 674.819 351.182 696.271 386.827C715.367 418.548 729.164 453.358 744.559 487.166C746.746 492.091 745.989 499.854 743.802 505.03C699.468 608.207 674.819 716.894 650.086 825.748L650.002 825.665ZM965.892 867.153C939.645 933.517 910.369 998.462 859.39 1050.47C822.543 1088.12 786.537 1088.53 747.839 1052.14C706.955 1013.49 683.484 963.903 662.368 912.982C660.602 908.641 660.686 902.798 661.948 898.039C684.577 808.552 706.955 719.065 730.762 629.828C738.249 601.78 749.522 574.817 759.028 547.353C760.711 547.353 762.309 547.353 763.992 547.353C766.011 552.695 768.282 557.871 769.964 563.297C790.239 628.326 809.251 693.855 831.376 758.299C840.798 785.763 854.342 812.475 870.158 836.851C892.282 870.993 917.941 877.421 956.975 864.816C959.499 863.981 962.191 863.647 964.63 863.146C965.387 865.15 966.313 866.402 965.976 867.153H965.892ZM995.084 777.415C985.409 801.54 972.79 823.244 948.31 835.515C929.298 845.115 914.071 843.947 901.2 827.251C888.833 811.307 876.888 793.777 870.494 774.995C846.182 704.707 824.393 633.584 801.596 562.796C797.894 551.026 795.623 538.421 790.323 527.402C780.312 506.616 781.49 487.667 794.95 469.051C814.13 442.589 831.965 415.042 852.575 389.748C861.156 379.23 874.532 371.634 887.151 365.623C914.66 352.601 939.14 358.528 959.078 381.651C987.008 413.957 999.879 453.358 1007.37 493.927C1015.11 535.332 1018.55 577.572 1021.92 603.45C1018.98 673.32 1015.36 726.661 995.168 777.248L995.084 777.415Z"/>
<path d="M530.099 8.86785C453.376 4.27662 390.282 73.4789 389.021 143.6C387.843 212.802 444.375 284.676 527.996 284.759C604.886 284.759 667.727 223.57 667.98 148.358C668.232 69.9729 607.83 8.95125 530.099 8.7843V8.86785ZM527.743 255.459C467.425 254.29 418.296 204.538 418.885 145.186C419.39 86.1674 470.538 36.7491 530.183 37.5004C588.902 38.2517 638.704 88.5047 638.452 146.688C638.199 205.456 586.126 256.544 527.743 255.375V255.459Z"/>
<path d="M919.919 8.09136C852.703 5.50357 778.083 57.7602 776.485 144.66C775.055 220.707 837.98 284.233 913.273 284.65C993.192 285.151 1054.69 225.382 1055.11 147.164C1055.36 70.4486 995.379 11.0965 919.919 8.09136ZM916.385 255.35C856.067 255.517 807.948 206.85 807.948 145.828C807.948 84.8066 856.656 37.1414 917.142 37.3918C975.946 37.6423 1025.58 87.144 1025.75 145.828C1026 205.013 975.778 255.183 916.385 255.35Z"/>
<path d="M148.437 8.64347C87.026 4.38615 10.0514 53.721 8.03239 146.13C6.34988 221.176 70.9581 283.7 146.587 284.785C208.839 285.62 284.3 240.876 288.001 147.215C290.946 72.4199 225.749 8.64347 148.437 8.64347ZM147.765 255.234C88.7927 255.652 39.0747 205.566 39.1588 145.546C39.1588 86.1935 87.7833 37.5264 147.26 37.276C207.409 37.0256 256.959 86.1101 257.043 145.88C257.043 205.816 208.166 254.817 147.765 255.234Z"/>
</mask>
  <path d="M1043.03 519.555C1035.3 469.886 1023.01 421.136 994.326 378.145C957.9 323.634 899.601 313.951 847.191 353.603C817.579 375.975 796.8 405.526 778.125 436.746C774.844 442.172 771.142 447.514 766.095 455.445C762.057 446.68 759.869 441.003 756.841 435.744C740.773 407.946 727.061 378.312 707.544 353.102C684.83 323.718 649.581 321.798 619.296 343.836C610.211 350.431 600.873 357.944 594.563 366.959C572.186 398.931 551.07 431.654 529.619 464.21C526.674 468.634 524.319 473.392 520.281 480.488C506.821 454.026 496.726 429.15 482.172 407.279C464.758 381.234 445.914 355.272 423.2 333.735C401.496 313.117 372.304 313.951 350.348 334.403C332.177 351.432 317.707 373.053 303.911 394.173C293.311 410.451 286.413 429.149 276.149 450.186C269.84 441.337 266.138 434.826 261.343 429.483C238.125 404.106 216.336 376.976 190.342 354.605C176.293 342.417 155.514 334.737 136.67 331.732C96.7102 325.471 70.7997 349.095 53.4699 381.401C18.7262 446.179 7.11682 516.633 8.12632 589.091C8.7152 627.908 13.342 666.725 17.5483 705.375C26.4656 786.347 43.7956 865.567 76.352 940.696C101.169 997.961 133.978 1049.88 186.303 1086.95C231.142 1118.84 274.383 1116 314.174 1077.93C323.932 1068.58 333.523 1058.32 340.169 1046.71C358.929 1013.91 376.258 980.181 394.009 946.873C396.785 941.698 399.309 936.439 403.599 927.841C413.694 954.47 420.845 977.676 431.276 999.297C445.241 1028.18 459.458 1057.4 477.798 1083.61C499.165 1114.16 529.534 1117.42 559.399 1094.79C572.775 1084.69 585.562 1072.09 593.975 1057.81C610.211 1030.18 623.166 1000.55 637.383 971.75C639.907 966.658 642.178 961.315 645.88 953.301C650.759 962.651 653.956 968.577 656.984 974.588C677.343 1013.99 700.729 1051.39 735.221 1080.44C778.882 1117.42 823.72 1118.5 868.054 1082.94C902.882 1055.14 926.269 1018.16 947.384 979.93C986.419 909.309 1013.51 834.013 1033.61 756.212C1053.89 677.911 1055.06 598.858 1042.95 519.472L1043.03 519.555ZM50.1889 723.072C45.1414 675.406 41.1034 627.658 36.7288 579.993C36.4765 523.562 48.4224 469.719 69.4537 418.047C96.542 351.182 135.913 341.749 187.902 392.086C214.401 417.797 234.76 449.852 257.137 479.653C260.25 483.827 261.259 491.841 259.493 496.933C227.946 590.427 196.399 684.005 163.421 776.998C156.523 796.365 144.998 814.646 132.8 831.425C118.499 851.126 105.796 850.541 90.7374 831.174C65.9204 799.453 54.4792 762.389 50.3571 723.155L50.1889 723.072ZM385.68 884.766C364.986 938.526 344.459 992.368 308.874 1038.86C306.855 1041.54 304.668 1044.21 302.396 1046.71C268.242 1085.53 236.779 1088.87 196.062 1056.56C145.503 1016.49 116.48 961.816 94.0181 903.131C90.1484 892.864 86.9517 882.346 82.5772 868.906C122.032 880.259 142.474 876.085 160.645 843.863C182.686 804.796 200.857 763.141 216.504 721.068C237.872 664.137 255.202 605.703 274.299 547.937C275.981 542.929 278 537.92 283.721 532.577C288.263 544.431 293.563 556.118 297.181 568.222C326.877 668.144 356.237 768.149 385.428 868.155C386.858 873.33 387.447 879.842 385.596 884.683L385.68 884.766ZM407.553 820.573C405.786 820.573 404.104 820.406 402.337 820.322C388.372 771.155 375.585 721.569 360.106 672.819C341.178 612.715 319.895 553.28 300.041 493.343C298.358 488.502 297.517 481.74 299.704 477.399C315.099 444.76 331.336 412.538 347.572 380.399C349.759 375.891 353.545 372.135 356.994 368.295C377.857 344.921 396.028 342.334 414.956 366.458C437.922 395.508 455.504 428.565 475.863 459.702C501.689 498.853 502.278 536.918 484.948 581.662C457.187 653.452 437.417 728.414 414.199 801.957C412.18 808.218 409.824 814.229 407.553 820.406V820.573ZM618.202 936.272C601.714 971.416 588.927 1008.9 568.064 1041.29C535.087 1092.46 508.251 1091.54 483.686 1038.7C460.72 989.196 442.717 937.44 423.032 886.52C421.181 881.761 422.191 875.167 423.873 869.991C453.317 776.497 483.097 683.086 512.878 589.676C514.56 584.333 516.748 579.241 518.767 574.066C520.281 573.815 521.879 573.648 523.393 573.314C530.292 592.764 538.031 611.964 544.088 631.748C569.157 714.807 593.049 798.201 619.128 880.927C625.269 900.46 626.952 917.907 618.287 936.272H618.202ZM650.002 825.665C648.404 832.51 646.3 839.355 644.534 846.2C642.851 846.2 641.085 846.2 639.402 846.2C634.27 828.002 629.812 809.637 624.091 791.606C597.171 707.378 569.578 623.484 543.247 539.005C540.219 529.238 540.134 516.55 544.004 507.2C561.755 462.874 586.571 422.555 617.95 386.242C619.38 384.489 620.81 382.736 622.325 381.067C651.348 350.932 674.819 351.182 696.271 386.827C715.367 418.548 729.164 453.358 744.559 487.166C746.746 492.091 745.989 499.854 743.802 505.03C699.468 608.207 674.819 716.894 650.086 825.748L650.002 825.665ZM965.892 867.153C939.645 933.517 910.369 998.462 859.39 1050.47C822.543 1088.12 786.537 1088.53 747.839 1052.14C706.955 1013.49 683.484 963.903 662.368 912.982C660.602 908.641 660.686 902.798 661.948 898.039C684.577 808.552 706.955 719.065 730.762 629.828C738.249 601.78 749.522 574.817 759.028 547.353C760.711 547.353 762.309 547.353 763.992 547.353C766.011 552.695 768.282 557.871 769.964 563.297C790.239 628.326 809.251 693.855 831.376 758.299C840.798 785.763 854.342 812.475 870.158 836.851C892.282 870.993 917.941 877.421 956.975 864.816C959.499 863.981 962.191 863.647 964.63 863.146C965.387 865.15 966.313 866.402 965.976 867.153H965.892ZM995.084 777.415C985.409 801.54 972.79 823.244 948.31 835.515C929.298 845.115 914.071 843.947 901.2 827.251C888.833 811.307 876.888 793.777 870.494 774.995C846.182 704.707 824.393 633.584 801.596 562.796C797.894 551.026 795.623 538.421 790.323 527.402C780.312 506.616 781.49 487.667 794.95 469.051C814.13 442.589 831.965 415.042 852.575 389.748C861.156 379.23 874.532 371.634 887.151 365.623C914.66 352.601 939.14 358.528 959.078 381.651C987.008 413.957 999.879 453.358 1007.37 493.927C1015.11 535.332 1018.55 577.572 1021.92 603.45C1018.98 673.32 1015.36 726.661 995.168 777.248L995.084 777.415Z" fill="#FF7800"/>
  <path d="M530.099 8.86785C453.376 4.27662 390.282 73.4789 389.021 143.6C387.843 212.802 444.375 284.676 527.996 284.759C604.886 284.759 667.727 223.57 667.98 148.358C668.232 69.9729 607.83 8.95125 530.099 8.7843V8.86785ZM527.743 255.459C467.425 254.29 418.296 204.538 418.885 145.186C419.39 86.1674 470.538 36.7491 530.183 37.5004C588.902 38.2517 638.704 88.5047 638.452 146.688C638.199 205.456 586.126 256.544 527.743 255.375V255.459Z" fill="#FF7800"/>
  <path d="M919.919 8.09136C852.703 5.50357 778.083 57.7602 776.485 144.66C775.055 220.707 837.98 284.233 913.273 284.65C993.192 285.151 1054.69 225.382 1055.11 147.164C1055.36 70.4486 995.379 11.0965 919.919 8.09136ZM916.385 255.35C856.067 255.517 807.948 206.85 807.948 145.828C807.948 84.8066 856.656 37.1414 917.142 37.3918C975.946 37.6423 1025.58 87.144 1025.75 145.828C1026 205.013 975.778 255.183 916.385 255.35Z" fill="#FF7800"/>
  <path d="M148.437 8.64347C87.026 4.38615 10.0514 53.721 8.03239 146.13C6.34988 221.176 70.9581 283.7 146.587 284.785C208.839 285.62 284.3 240.876 288.001 147.215C290.946 72.4199 225.749 8.64347 148.437 8.64347ZM147.765 255.234C88.7927 255.652 39.0747 205.566 39.1588 145.546C39.1588 86.1935 87.7833 37.5264 147.26 37.276C207.409 37.0256 256.959 86.1101 257.043 145.88C257.043 205.816 208.166 254.817 147.765 255.234Z" fill="#FF7800"/>
  <path d="M1043.03 519.555C1035.3 469.886 1023.01 421.136 994.326 378.145C957.9 323.634 899.601 313.951 847.191 353.603C817.579 375.975 796.8 405.526 778.125 436.746C774.844 442.172 771.142 447.514 766.095 455.445C762.057 446.68 759.869 441.003 756.841 435.744C740.773 407.946 727.061 378.312 707.544 353.102C684.83 323.718 649.581 321.798 619.296 343.836C610.211 350.431 600.873 357.944 594.563 366.959C572.186 398.931 551.07 431.654 529.619 464.21C526.674 468.634 524.319 473.392 520.281 480.488C506.821 454.026 496.726 429.15 482.172 407.279C464.758 381.234 445.914 355.272 423.2 333.735C401.496 313.117 372.304 313.951 350.348 334.403C332.177 351.432 317.707 373.053 303.911 394.173C293.311 410.451 286.413 429.149 276.149 450.186C269.84 441.337 266.138 434.826 261.343 429.483C238.125 404.106 216.336 376.976 190.342 354.605C176.293 342.417 155.514 334.737 136.67 331.732C96.7102 325.471 70.7997 349.095 53.4699 381.401C18.7262 446.179 7.11682 516.633 8.12632 589.091C8.7152 627.908 13.342 666.725 17.5483 705.375C26.4656 786.347 43.7956 865.567 76.352 940.696C101.169 997.961 133.978 1049.88 186.303 1086.95C231.142 1118.84 274.383 1116 314.174 1077.93C323.932 1068.58 333.523 1058.32 340.169 1046.71C358.929 1013.91 376.258 980.181 394.009 946.873C396.785 941.698 399.309 936.439 403.599 927.841C413.694 954.47 420.845 977.676 431.276 999.297C445.241 1028.18 459.458 1057.4 477.798 1083.61C499.165 1114.16 529.534 1117.42 559.399 1094.79C572.775 1084.69 585.562 1072.09 593.975 1057.81C610.211 1030.18 623.166 1000.55 637.383 971.75C639.907 966.658 642.178 961.315 645.88 953.301C650.759 962.651 653.956 968.577 656.984 974.588C677.343 1013.99 700.729 1051.39 735.221 1080.44C778.882 1117.42 823.72 1118.5 868.054 1082.94C902.882 1055.14 926.269 1018.16 947.384 979.93C986.419 909.309 1013.51 834.013 1033.61 756.212C1053.89 677.911 1055.06 598.858 1042.95 519.472L1043.03 519.555ZM50.1889 723.072C45.1414 675.406 41.1034 627.658 36.7288 579.993C36.4765 523.562 48.4224 469.719 69.4537 418.047C96.542 351.182 135.913 341.749 187.902 392.086C214.401 417.797 234.76 449.852 257.137 479.653C260.25 483.827 261.259 491.841 259.493 496.933C227.946 590.427 196.399 684.005 163.421 776.998C156.523 796.365 144.998 814.646 132.8 831.425C118.499 851.126 105.796 850.541 90.7374 831.174C65.9204 799.453 54.4792 762.389 50.3571 723.155L50.1889 723.072ZM385.68 884.766C364.986 938.526 344.459 992.368 308.874 1038.86C306.855 1041.54 304.668 1044.21 302.396 1046.71C268.242 1085.53 236.779 1088.87 196.062 1056.56C145.503 1016.49 116.48 961.816 94.0181 903.131C90.1484 892.864 86.9517 882.346 82.5772 868.906C122.032 880.259 142.474 876.085 160.645 843.863C182.686 804.796 200.857 763.141 216.504 721.068C237.872 664.137 255.202 605.703 274.299 547.937C275.981 542.929 278 537.92 283.721 532.577C288.263 544.431 293.563 556.118 297.181 568.222C326.877 668.144 356.237 768.149 385.428 868.155C386.858 873.33 387.447 879.842 385.596 884.683L385.68 884.766ZM407.553 820.573C405.786 820.573 404.104 820.406 402.337 820.322C388.372 771.155 375.585 721.569 360.106 672.819C341.178 612.715 319.895 553.28 300.041 493.343C298.358 488.502 297.517 481.74 299.704 477.399C315.099 444.76 331.336 412.538 347.572 380.399C349.759 375.891 353.545 372.135 356.994 368.295C377.857 344.921 396.028 342.334 414.956 366.458C437.922 395.508 455.504 428.565 475.863 459.702C501.689 498.853 502.278 536.918 484.948 581.662C457.187 653.452 437.417 728.414 414.199 801.957C412.18 808.218 409.824 814.229 407.553 820.406V820.573ZM618.202 936.272C601.714 971.416 588.927 1008.9 568.064 1041.29C535.087 1092.46 508.251 1091.54 483.686 1038.7C460.72 989.196 442.717 937.44 423.032 886.52C421.181 881.761 422.191 875.167 423.873 869.991C453.317 776.497 483.097 683.086 512.878 589.676C514.56 584.333 516.748 579.241 518.767 574.066C520.281 573.815 521.879 573.648 523.393 573.314C530.292 592.764 538.031 611.964 544.088 631.748C569.157 714.807 593.049 798.201 619.128 880.927C625.269 900.46 626.952 917.907 618.287 936.272H618.202ZM650.002 825.665C648.404 832.51 646.3 839.355 644.534 846.2C642.851 846.2 641.085 846.2 639.402 846.2C634.27 828.002 629.812 809.637 624.091 791.606C597.171 707.378 569.578 623.484 543.247 539.005C540.219 529.238 540.134 516.55 544.004 507.2C561.755 462.874 586.571 422.555 617.95 386.242C619.38 384.489 620.81 382.736 622.325 381.067C651.348 350.932 674.819 351.182 696.271 386.827C715.367 418.548 729.164 453.358 744.559 487.166C746.746 492.091 745.989 499.854 743.802 505.03C699.468 608.207 674.819 716.894 650.086 825.748L650.002 825.665ZM965.892 867.153C939.645 933.517 910.369 998.462 859.39 1050.47C822.543 1088.12 786.537 1088.53 747.839 1052.14C706.955 1013.49 683.484 963.903 662.368 912.982C660.602 908.641 660.686 902.798 661.948 898.039C684.577 808.552 706.955 719.065 730.762 629.828C738.249 601.78 749.522 574.817 759.028 547.353C760.711 547.353 762.309 547.353 763.992 547.353C766.011 552.695 768.282 557.871 769.964 563.297C790.239 628.326 809.251 693.855 831.376 758.299C840.798 785.763 854.342 812.475 870.158 836.851C892.282 870.993 917.941 877.421 956.975 864.816C959.499 863.981 962.191 863.647 964.63 863.146C965.387 865.15 966.313 866.402 965.976 867.153H965.892ZM995.084 777.415C985.409 801.54 972.79 823.244 948.31 835.515C929.298 845.115 914.071 843.947 901.2 827.251C888.833 811.307 876.888 793.777 870.494 774.995C846.182 704.707 824.393 633.584 801.596 562.796C797.894 551.026 795.623 538.421 790.323 527.402C780.312 506.616 781.49 487.667 794.95 469.051C814.13 442.589 831.965 415.042 852.575 389.748C861.156 379.23 874.532 371.634 887.151 365.623C914.66 352.601 939.14 358.528 959.078 381.651C987.008 413.957 999.879 453.358 1007.37 493.927C1015.11 535.332 1018.55 577.572 1021.92 603.45C1018.98 673.32 1015.36 726.661 995.168 777.248L995.084 777.415Z" stroke="#FF7800" stroke-width="16" stroke-miterlimit="10" mask="url(#path-1-outside-1_82_2)"/>
  <path d="M530.099 8.86785C453.376 4.27662 390.282 73.4789 389.021 143.6C387.843 212.802 444.375 284.676 527.996 284.759C604.886 284.759 667.727 223.57 667.98 148.358C668.232 69.9729 607.83 8.95125 530.099 8.7843V8.86785ZM527.743 255.459C467.425 254.29 418.296 204.538 418.885 145.186C419.39 86.1674 470.538 36.7491 530.183 37.5004C588.902 38.2517 638.704 88.5047 638.452 146.688C638.199 205.456 586.126 256.544 527.743 255.375V255.459Z" stroke="#FF7800" stroke-width="16" stroke-miterlimit="10" mask="url(#path-1-outside-1_82_2)"/>
  <path d="M919.919 8.09136C852.703 5.50357 778.083 57.7602 776.485 144.66C775.055 220.707 837.98 284.233 913.273 284.65C993.192 285.151 1054.69 225.382 1055.11 147.164C1055.36 70.4486 995.379 11.0965 919.919 8.09136ZM916.385 255.35C856.067 255.517 807.948 206.85 807.948 145.828C807.948 84.8066 856.656 37.1414 917.142 37.3918C975.946 37.6423 1025.58 87.144 1025.75 145.828C1026 205.013 975.778 255.183 916.385 255.35Z" stroke="#FF7800" stroke-width="16" stroke-miterlimit="10" mask="url(#path-1-outside-1_82_2)"/>
  <path d="M148.437 8.64347C87.026 4.38615 10.0514 53.721 8.03239 146.13C6.34988 221.176 70.9581 283.7 146.587 284.785C208.839 285.62 284.3 240.876 288.001 147.215C290.946 72.4199 225.749 8.64347 148.437 8.64347ZM147.765 255.234C88.7927 255.652 39.0747 205.566 39.1588 145.546C39.1588 86.1935 87.7833 37.5264 147.26 37.276C207.409 37.0256 256.959 86.1101 257.043 145.88C257.043 205.816 208.166 254.817 147.765 255.234Z" stroke="#FF7800" stroke-width="16" stroke-miterlimit="10" mask="url(#path-1-outside-1_82_2)"/>
</svg>