<svg xmlns="http://www.w3.org/2000/svg" viewBox="0 0 3986 1350" fill="none">
  <!-- DigiFemmes Full Logo with Tagline -->
  <title>DigiFemmes Côte d'Ivoire — We Can Do More (black)</title>
<mask id="path-1-outside-1_82_2" maskUnits="userSpaceOnUse" x="-0.999756" y="-0.000488281" width="1065" height="1118" fill="black">
<rect fill="white" x="-0.999756" y="-0.000488281" width="1065" height="1118"/>
<path d="M1043.03 519.555C1035.3 469.886 1023.01 421.136 994.326 378.145C957.9 323.634 899.601 313.951 847.191 353.603C817.579 375.975 796.8 405.526 778.125 436.746C774.844 442.172 771.142 447.514 766.095 455.445C762.057 446.68 759.869 441.003 756.841 435.744C740.773 407.946 727.061 378.312 707.544 353.102C684.83 323.718 649.581 321.798 619.296 343.836C610.211 350.431 600.873 357.944 594.563 366.959C572.186 398.931 551.07 431.654 529.619 464.21C526.674 468.634 524.319 473.392 520.281 480.488C506.821 454.026 496.726 429.15 482.172 407.279C464.758 381.234 445.914 355.272 423.2 333.735C401.496 313.117 372.304 313.951 350.348 334.403C332.177 351.432 317.707 373.053 303.911 394.173C293.311 410.451 286.413 429.149 276.149 450.186C269.84 441.337 266.138 434.826 261.343 429.483C238.125 404.106 216.336 376.976 190.342 354.605C176.293 342.417 155.514 334.737 136.67 331.732C96.7102 325.471 70.7997 349.095 53.4699 381.401C18.7262 446.179 7.11682 516.633 8.12632 589.091C8.7152 627.908 13.342 666.725 17.5483 705.375C26.4656 786.347 43.7956 865.567 76.352 940.696C101.169 997.961 133.978 1049.88 186.303 1086.95C231.142 1118.84 274.383 1116 314.174 1077.93C323.932 1068.58 333.523 1058.32 340.169 1046.71C358.929 1013.91 376.258 980.181 394.009 946.873C396.785 941.698 399.309 936.439 403.599 927.841C413.694 954.47 420.845 977.676 431.276 999.297C445.241 1028.18 459.458 1057.4 477.798 1083.61C499.165 1114.16 529.534 1117.42 559.399 1094.79C572.775 1084.69 585.562 1072.09 593.975 1057.81C610.211 1030.18 623.166 1000.55 637.383 971.75C639.907 966.658 642.178 961.315 645.88 953.301C650.759 962.651 653.956 968.577 656.984 974.588C677.343 1013.99 700.729 1051.39 735.221 1080.44C778.882 1117.42 823.72 1118.5 868.054 1082.94C902.882 1055.14 926.269 1018.16 947.384 979.93C986.419 909.309 1013.51 834.013 1033.61 756.212C1053.89 677.911 1055.06 598.858 1042.95 519.472L1043.03 519.555ZM50.1889 723.072C45.1414 675.406 41.1034 627.658 36.7288 579.993C36.4765 523.562 48.4224 469.719 69.4537 418.047C96.542 351.182 135.913 341.749 187.902 392.086C214.401 417.797 234.76 449.852 257.137 479.653C260.25 483.827 261.259 491.841 259.493 496.933C227.946 590.427 196.399 684.005 163.421 776.998C156.523 796.365 144.998 814.646 132.8 831.425C118.499 851.126 105.796 850.541 90.7374 831.174C65.9204 799.453 54.4792 762.389 50.3571 723.155L50.1889 723.072ZM385.68 884.766C364.986 938.526 344.459 992.368 308.874 1038.86C306.855 1041.54 304.668 1044.21 302.396 1046.71C268.242 1085.53 236.779 1088.87 196.062 1056.56C145.503 1016.49 116.48 961.816 94.0181 903.131C90.1484 892.864 86.9517 882.346 82.5772 868.906C122.032 880.259 142.474 876.085 160.645 843.863C182.686 804.796 200.857 763.141 216.504 721.068C237.872 664.137 255.202 605.703 274.299 547.937C275.981 542.929 278 537.92 283.721 532.577C288.263 544.431 293.563 556.118 297.181 568.222C326.877 668.144 356.237 768.149 385.428 868.155C386.858 873.33 387.447 879.842 385.596 884.683L385.68 884.766ZM407.553 820.573C405.786 820.573 404.104 820.406 402.337 820.322C388.372 771.155 375.585 721.569 360.106 672.819C341.178 612.715 319.895 553.28 300.041 493.343C298.358 488.502 297.517 481.74 299.704 477.399C315.099 444.76 331.336 412.538 347.572 380.399C349.759 375.891 353.545 372.135 356.994 368.295C377.857 344.921 396.028 342.334 414.956 366.458C437.922 395.508 455.504 428.565 475.863 459.702C501.689 498.853 502.278 536.918 484.948 581.662C457.187 653.452 437.417 728.414 414.199 801.957C412.18 808.218 409.824 814.229 407.553 820.406V820.573ZM618.202 936.272C601.714 971.416 588.927 1008.9 568.064 1041.29C535.087 1092.46 508.251 1091.54 483.686 1038.7C460.72 989.196 442.717 937.44 423.032 886.52C421.181 881.761 422.191 875.167 423.873 869.991C453.317 776.497 483.097 683.086 512.878 589.676C514.56 584.333 516.748 579.241 518.767 574.066C520.281 573.815 521.879 573.648 523.393 573.314C530.292 592.764 538.031 611.964 544.088 631.748C569.157 714.807 593.049 798.201 619.128 880.927C625.269 900.46 626.952 917.907 618.287 936.272H618.202ZM650.002 825.665C648.404 832.51 646.3 839.355 644.534 846.2C642.851 846.2 641.085 846.2 639.402 846.2C634.27 828.002 629.812 809.637 624.091 791.606C597.171 707.378 569.578 623.484 543.247 539.005C540.219 529.238 540.134 516.55 544.004 507.2C561.755 462.874 586.571 422.555 617.95 386.242C619.38 384.489 620.81 382.736 622.325 381.067C651.348 350.932 674.819 351.182 696.271 386.827C715.367 418.548 729.164 453.358 744.559 487.166C746.746 492.091 745.989 499.854 743.802 505.03C699.468 608.207 674.819 716.894 650.086 825.748L650.002 825.665ZM965.892 867.153C939.645 933.517 910.369 998.462 859.39 1050.47C822.543 1088.12 786.537 1088.53 747.839 1052.14C706.955 1013.49 683.484 963.903 662.368 912.982C660.602 908.641 660.686 902.798 661.948 898.039C684.577 808.552 706.955 719.065 730.762 629.828C738.249 601.78 749.522 574.817 759.028 547.353C760.711 547.353 762.309 547.353 763.992 547.353C766.011 552.695 768.282 557.871 769.964 563.297C790.239 628.326 809.251 693.855 831.376 758.299C840.798 785.763 854.342 812.475 870.158 836.851C892.282 870.993 917.941 877.421 956.975 864.816C959.499 863.981 962.191 863.647 964.63 863.146C965.387 865.15 966.313 866.402 965.976 867.153H965.892ZM995.084 777.415C985.409 801.54 972.79 823.244 948.31 835.515C929.298 845.115 914.071 843.947 901.2 827.251C888.833 811.307 876.888 793.777 870.494 774.995C846.182 704.707 824.393 633.584 801.596 562.796C797.894 551.026 795.623 538.421 790.323 527.402C780.312 506.616 781.49 487.667 794.95 469.051C814.13 442.589 831.965 415.042 852.575 389.748C861.156 379.23 874.532 371.634 887.151 365.623C914.66 352.601 939.14 358.528 959.078 381.651C987.008 413.957 999.879 453.358 1007.37 493.927C1015.11 535.332 1018.55 577.572 1021.92 603.45C1018.98 673.32 1015.36 726.661 995.168 777.248L995.084 777.415Z"/>
<path d="M530.099 8.86785C453.376 4.27662 390.282 73.4789 389.021 143.6C387.843 212.802 444.375 284.676 527.996 284.759C604.886 284.759 667.727 223.57 667.98 148.358C668.232 69.9729 607.83 8.95125 530.099 8.7843V8.86785ZM527.743 255.459C467.425 254.29 418.296 204.538 418.885 145.186C419.39 86.1674 470.538 36.7491 530.183 37.5004C588.902 38.2517 638.704 88.5047 638.452 146.688C638.199 205.456 586.126 256.544 527.743 255.375V255.459Z"/>
<path d="M919.919 8.09136C852.703 5.50357 778.083 57.7602 776.485 144.66C775.055 220.707 837.98 284.233 913.273 284.65C993.192 285.151 1054.69 225.382 1055.11 147.164C1055.36 70.4486 995.379 11.0965 919.919 8.09136ZM916.385 255.35C856.067 255.517 807.948 206.85 807.948 145.828C807.948 84.8066 856.656 37.1414 917.142 37.3918C975.946 37.6423 1025.58 87.144 1025.75 145.828C1026 205.013 975.778 255.183 916.385 255.35Z"/>
<path d="M148.437 8.64347C87.026 4.38615 10.0514 53.721 8.03239 146.13C6.34988 221.176 70.9581 283.7 146.587 284.785C208.839 285.62 284.3 240.876 288.001 147.215C290.946 72.4199 225.749 8.64347 148.437 8.64347ZM147.765 255.234C88.7927 255.652 39.0747 205.566 39.1588 145.546C39.1588 86.1935 87.7833 37.5264 147.26 37.276C207.409 37.0256 256.959 86.1101 257.043 145.88C257.043 205.816 208.166 254.817 147.765 255.234Z"/>
</mask>
  <path d="M1043.03 519.555C1035.3 469.886 1023.01 421.136 994.326 378.145C957.9 323.634 899.601 313.951 847.191 353.603C817.579 375.975 796.8 405.526 778.125 436.746C774.844 442.172 771.142 447.514 766.095 455.445C762.057 446.68 759.869 441.003 756.841 435.744C740.773 407.946 727.061 378.312 707.544 353.102C684.83 323.718 649.581 321.798 619.296 343.836C610.211 350.431 600.873 357.944 594.563 366.959C572.186 398.931 551.07 431.654 529.619 464.21C526.674 468.634 524.319 473.392 520.281 480.488C506.821 454.026 496.726 429.15 482.172 407.279C464.758 381.234 445.914 355.272 423.2 333.735C401.496 313.117 372.304 313.951 350.348 334.403C332.177 351.432 317.707 373.053 303.911 394.173C293.311 410.451 286.413 429.149 276.149 450.186C269.84 441.337 266.138 434.826 261.343 429.483C238.125 404.106 216.336 376.976 190.342 354.605C176.293 342.417 155.514 334.737 136.67 331.732C96.7102 325.471 70.7997 349.095 53.4699 381.401C18.7262 446.179 7.11682 516.633 8.12632 589.091C8.7152 627.908 13.342 666.725 17.5483 705.375C26.4656 786.347 43.7956 865.567 76.352 940.696C101.169 997.961 133.978 1049.88 186.303 1086.95C231.142 1118.84 274.383 1116 314.174 1077.93C323.932 1068.58 333.523 1058.32 340.169 1046.71C358.929 1013.91 376.258 980.181 394.009 946.873C396.785 941.698 399.309 936.439 403.599 927.841C413.694 954.47 420.845 977.676 431.276 999.297C445.241 1028.18 459.458 1057.4 477.798 1083.61C499.165 1114.16 529.534 1117.42 559.399 1094.79C572.775 1084.69 585.562 1072.09 593.975 1057.81C610.211 1030.18 623.166 1000.55 637.383 971.75C639.907 966.658 642.178 961.315 645.88 953.301C650.759 962.651 653.956 968.577 656.984 974.588C677.343 1013.99 700.729 1051.39 735.221 1080.44C778.882 1117.42 823.72 1118.5 868.054 1082.94C902.882 1055.14 926.269 1018.16 947.384 979.93C986.419 909.309 1013.51 834.013 1033.61 756.212C1053.89 677.911 1055.06 598.858 1042.95 519.472L1043.03 519.555ZM50.1889 723.072C45.1414 675.406 41.1034 627.658 36.7288 579.993C36.4765 523.562 48.4224 469.719 69.4537 418.047C96.542 351.182 135.913 341.749 187.902 392.086C214.401 417.797 234.76 449.852 257.137 479.653C260.25 483.827 261.259 491.841 259.493 496.933C227.946 590.427 196.399 684.005 163.421 776.998C156.523 796.365 144.998 814.646 132.8 831.425C118.499 851.126 105.796 850.541 90.7374 831.174C65.9204 799.453 54.4792 762.389 50.3571 723.155L50.1889 723.072ZM385.68 884.766C364.986 938.526 344.459 992.368 308.874 1038.86C306.855 1041.54 304.668 1044.21 302.396 1046.71C268.242 1085.53 236.779 1088.87 196.062 1056.56C145.503 1016.49 116.48 961.816 94.0181 903.131C90.1484 892.864 86.9517 882.346 82.5772 868.906C122.032 880.259 142.474 876.085 160.645 843.863C182.686 804.796 200.857 763.141 216.504 721.068C237.872 664.137 255.202 605.703 274.299 547.937C275.981 542.929 278 537.92 283.721 532.577C288.263 544.431 293.563 556.118 297.181 568.222C326.877 668.144 356.237 768.149 385.428 868.155C386.858 873.33 387.447 879.842 385.596 884.683L385.68 884.766ZM407.553 820.573C405.786 820.573 404.104 820.406 402.337 820.322C388.372 771.155 375.585 721.569 360.106 672.819C341.178 612.715 319.895 553.28 300.041 493.343C298.358 488.502 297.517 481.74 299.704 477.399C315.099 444.76 331.336 412.538 347.572 380.399C349.759 375.891 353.545 372.135 356.994 368.295C377.857 344.921 396.028 342.334 414.956 366.458C437.922 395.508 455.504 428.565 475.863 459.702C501.689 498.853 502.278 536.918 484.948 581.662C457.187 653.452 437.417 728.414 414.199 801.957C412.18 808.218 409.824 814.229 407.553 820.406V820.573ZM618.202 936.272C601.714 971.416 588.927 1008.9 568.064 1041.29C535.087 1092.46 508.251 1091.54 483.686 1038.7C460.72 989.196 442.717 937.44 423.032 886.52C421.181 881.761 422.191 875.167 423.873 869.991C453.317 776.497 483.097 683.086 512.878 589.676C514.56 584.333 516.748 579.241 518.767 574.066C520.281 573.815 521.879 573.648 523.393 573.314C530.292 592.764 538.031 611.964 544.088 631.748C569.157 714.807 593.049 798.201 619.128 880.927C625.269 900.46 626.952 917.907 618.287 936.272H618.202ZM650.002 825.665C648.404 832.51 646.3 839.355 644.534 846.2C642.851 846.2 641.085 846.2 639.402 846.2C634.27 828.002 629.812 809.637 624.091 791.606C597.171 707.378 569.578 623.484 543.247 539.005C540.219 529.238 540.134 516.55 544.004 507.2C561.755 462.874 586.571 422.555 617.95 386.242C619.38 384.489 620.81 382.736 622.325 381.067C651.348 350.932 674.819 351.182 696.271 386.827C715.367 418.548 729.164 453.358 744.559 487.166C746.746 492.091 745.989 499.854 743.802 505.03C699.468 608.207 674.819 716.894 650.086 825.748L650.002 825.665ZM965.892 867.153C939.645 933.517 910.369 998.462 859.39 1050.47C822.543 1088.12 786.537 1088.53 747.839 1052.14C706.955 1013.49 683.484 963.903 662.368 912.982C660.602 908.641 660.686 902.798 661.948 898.039C684.577 808.552 706.955 719.065 730.762 629.828C738.249 601.78 749.522 574.817 759.028 547.353C760.711 547.353 762.309 547.353 763.992 547.353C766.011 552.695 768.282 557.871 769.964 563.297C790.239 628.326 809.251 693.855 831.376 758.299C840.798 785.763 854.342 812.475 870.158 836.851C892.282 870.993 917.941 877.421 956.975 864.816C959.499 863.981 962.191 863.647 964.63 863.146C965.387 865.15 966.313 866.402 965.976 867.153H965.892ZM995.084 777.415C985.409 801.54 972.79 823.244 948.31 835.515C929.298 845.115 914.071 843.947 901.2 827.251C888.833 811.307 876.888 793.777 870.494 774.995C846.182 704.707 824.393 633.584 801.596 562.796C797.894 551.026 795.623 538.421 790.323 527.402C780.312 506.616 781.49 487.667 794.95 469.051C814.13 442.589 831.965 415.042 852.575 389.748C861.156 379.23 874.532 371.634 887.151 365.623C914.66 352.601 939.14 358.528 959.078 381.651C987.008 413.957 999.879 453.358 1007.37 493.927C1015.11 535.332 1018.55 577.572 1021.92 603.45C1018.98 673.32 1015.36 726.661 995.168 777.248L995.084 777.415Z" fill="#1A1A1A"/>
  <path d="M530.099 8.86785C453.376 4.27662 390.282 73.4789 389.021 143.6C387.843 212.802 444.375 284.676 527.996 284.759C604.886 284.759 667.727 223.57 667.98 148.358C668.232 69.9729 607.83 8.95125 530.099 8.7843V8.86785ZM527.743 255.459C467.425 254.29 418.296 204.538 418.885 145.186C419.39 86.1674 470.538 36.7491 530.183 37.5004C588.902 38.2517 638.704 88.5047 638.452 146.688C638.199 205.456 586.126 256.544 527.743 255.375V255.459Z" fill="#1A1A1A"/>
  <path d="M919.919 8.09136C852.703 5.50357 778.083 57.7602 776.485 144.66C775.055 220.707 837.98 284.233 913.273 284.65C993.192 285.151 1054.69 225.382 1055.11 147.164C1055.36 70.4486 995.379 11.0965 919.919 8.09136ZM916.385 255.35C856.067 255.517 807.948 206.85 807.948 145.828C807.948 84.8066 856.656 37.1414 917.142 37.3918C975.946 37.6423 1025.58 87.144 1025.75 145.828C1026 205.013 975.778 255.183 916.385 255.35Z" fill="#1A1A1A"/>
  <path d="M148.437 8.64347C87.026 4.38615 10.0514 53.721 8.03239 146.13C6.34988 221.176 70.9581 283.7 146.587 284.785C208.839 285.62 284.3 240.876 288.001 147.215C290.946 72.4199 225.749 8.64347 148.437 8.64347ZM147.765 255.234C88.7927 255.652 39.0747 205.566 39.1588 145.546C39.1588 86.1935 87.7833 37.5264 147.26 37.276C207.409 37.0256 256.959 86.1101 257.043 145.88C257.043 205.816 208.166 254.817 147.765 255.234Z" fill="#1A1A1A"/>
  <path d="M1043.03 519.555C1035.3 469.886 1023.01 421.136 994.326 378.145C957.9 323.634 899.601 313.951 847.191 353.603C817.579 375.975 796.8 405.526 778.125 436.746C774.844 442.172 771.142 447.514 766.095 455.445C762.057 446.68 759.869 441.003 756.841 435.744C740.773 407.946 727.061 378.312 707.544 353.102C684.83 323.718 649.581 321.798 619.296 343.836C610.211 350.431 600.873 357.944 594.563 366.959C572.186 398.931 551.07 431.654 529.619 464.21C526.674 468.634 524.319 473.392 520.281 480.488C506.821 454.026 496.726 429.15 482.172 407.279C464.758 381.234 445.914 355.272 423.2 333.735C401.496 313.117 372.304 313.951 350.348 334.403C332.177 351.432 317.707 373.053 303.911 394.173C293.311 410.451 286.413 429.149 276.149 450.186C269.84 441.337 266.138 434.826 261.343 429.483C238.125 404.106 216.336 376.976 190.342 354.605C176.293 342.417 155.514 334.737 136.67 331.732C96.7102 325.471 70.7997 349.095 53.4699 381.401C18.7262 446.179 7.11682 516.633 8.12632 589.091C8.7152 627.908 13.342 666.725 17.5483 705.375C26.4656 786.347 43.7956 865.567 76.352 940.696C101.169 997.961 133.978 1049.88 186.303 1086.95C231.142 1118.84 274.383 1116 314.174 1077.93C323.932 1068.58 333.523 1058.32 340.169 1046.71C358.929 1013.91 376.258 980.181 394.009 946.873C396.785 941.698 399.309 936.439 403.599 927.841C413.694 954.47 420.845 977.676 431.276 999.297C445.241 1028.18 459.458 1057.4 477.798 1083.61C499.165 1114.16 529.534 1117.42 559.399 1094.79C572.775 1084.69 585.562 1072.09 593.975 1057.81C610.211 1030.18 623.166 1000.55 637.383 971.75C639.907 966.658 642.178 961.315 645.88 953.301C650.759 962.651 653.956 968.577 656.984 974.588C677.343 1013.99 700.729 1051.39 735.221 1080.44C778.882 1117.42 823.72 1118.5 868.054 1082.94C902.882 1055.14 926.269 1018.16 947.384 979.93C986.419 909.309 1013.51 834.013 1033.61 756.212C1053.89 677.911 1055.06 598.858 1042.95 519.472L1043.03 519.555ZM50.1889 723.072C45.1414 675.406 41.1034 627.658 36.7288 579.993C36.4765 523.562 48.4224 469.719 69.4537 418.047C96.542 351.182 135.913 341.749 187.902 392.086C214.401 417.797 234.76 449.852 257.137 479.653C260.25 483.827 261.259 491.841 259.493 496.933C227.946 590.427 196.399 684.005 163.421 776.998C156.523 796.365 144.998 814.646 132.8 831.425C118.499 851.126 105.796 850.541 90.7374 831.174C65.9204 799.453 54.4792 762.389 50.3571 723.155L50.1889 723.072ZM385.68 884.766C364.986 938.526 344.459 992.368 308.874 1038.86C306.855 1041.54 304.668 1044.21 302.396 1046.71C268.242 1085.53 236.779 1088.87 196.062 1056.56C145.503 1016.49 116.48 961.816 94.0181 903.131C90.1484 892.864 86.9517 882.346 82.5772 868.906C122.032 880.259 142.474 876.085 160.645 843.863C182.686 804.796 200.857 763.141 216.504 721.068C237.872 664.137 255.202 605.703 274.299 547.937C275.981 542.929 278 537.92 283.721 532.577C288.263 544.431 293.563 556.118 297.181 568.222C326.877 668.144 356.237 768.149 385.428 868.155C386.858 873.33 387.447 879.842 385.596 884.683L385.68 884.766ZM407.553 820.573C405.786 820.573 404.104 820.406 402.337 820.322C388.372 771.155 375.585 721.569 360.106 672.819C341.178 612.715 319.895 553.28 300.041 493.343C298.358 488.502 297.517 481.74 299.704 477.399C315.099 444.76 331.336 412.538 347.572 380.399C349.759 375.891 353.545 372.135 356.994 368.295C377.857 344.921 396.028 342.334 414.956 366.458C437.922 395.508 455.504 428.565 475.863 459.702C501.689 498.853 502.278 536.918 484.948 581.662C457.187 653.452 437.417 728.414 414.199 801.957C412.18 808.218 409.824 814.229 407.553 820.406V820.573ZM618.202 936.272C601.714 971.416 588.927 1008.9 568.064 1041.29C535.087 1092.46 508.251 1091.54 483.686 1038.7C460.72 989.196 442.717 937.44 423.032 886.52C421.181 881.761 422.191 875.167 423.873 869.991C453.317 776.497 483.097 683.086 512.878 589.676C514.56 584.333 516.748 579.241 518.767 574.066C520.281 573.815 521.879 573.648 523.393 573.314C530.292 592.764 538.031 611.964 544.088 631.748C569.157 714.807 593.049 798.201 619.128 880.927C625.269 900.46 626.952 917.907 618.287 936.272H618.202ZM650.002 825.665C648.404 832.51 646.3 839.355 644.534 846.2C642.851 846.2 641.085 846.2 639.402 846.2C634.27 828.002 629.812 809.637 624.091 791.606C597.171 707.378 569.578 623.484 543.247 539.005C540.219 529.238 540.134 516.55 544.004 507.2C561.755 462.874 586.571 422.555 617.95 386.242C619.38 384.489 620.81 382.736 622.325 381.067C651.348 350.932 674.819 351.182 696.271 386.827C715.367 418.548 729.164 453.358 744.559 487.166C746.746 492.091 745.989 499.854 743.802 505.03C699.468 608.207 674.819 716.894 650.086 825.748L650.002 825.665ZM965.892 867.153C939.645 933.517 910.369 998.462 859.39 1050.47C822.543 1088.12 786.537 1088.53 747.839 1052.14C706.955 1013.49 683.484 963.903 662.368 912.982C660.602 908.641 660.686 902.798 661.948 898.039C684.577 808.552 706.955 719.065 730.762 629.828C738.249 601.78 749.522 574.817 759.028 547.353C760.711 547.353 762.309 547.353 763.992 547.353C766.011 552.695 768.282 557.871 769.964 563.297C790.239 628.326 809.251 693.855 831.376 758.299C840.798 785.763 854.342 812.475 870.158 836.851C892.282 870.993 917.941 877.421 956.975 864.816C959.499 863.981 962.191 863.647 964.63 863.146C965.387 865.15 966.313 866.402 965.976 867.153H965.892ZM995.084 777.415C985.409 801.54 972.79 823.244 948.31 835.515C929.298 845.115 914.071 843.947 901.2 827.251C888.833 811.307 876.888 793.777 870.494 774.995C846.182 704.707 824.393 633.584 801.596 562.796C797.894 551.026 795.623 538.421 790.323 527.402C780.312 506.616 781.49 487.667 794.95 469.051C814.13 442.589 831.965 415.042 852.575 389.748C861.156 379.23 874.532 371.634 887.151 365.623C914.66 352.601 939.14 358.528 959.078 381.651C987.008 413.957 999.879 453.358 1007.37 493.927C1015.11 535.332 1018.55 577.572 1021.92 603.45C1018.98 673.32 1015.36 726.661 995.168 777.248L995.084 777.415Z" stroke="#1A1A1A" stroke-width="16" stroke-miterlimit="10" mask="url(#path-1-outside-1_82_2)"/>
  <path d="M530.099 8.86785C453.376 4.27662 390.282 73.4789 389.021 143.6C387.843 212.802 444.375 284.676 527.996 284.759C604.886 284.759 667.727 223.57 667.98 148.358C668.232 69.9729 607.83 8.95125 530.099 8.7843V8.86785ZM527.743 255.459C467.425 254.29 418.296 204.538 418.885 145.186C419.39 86.1674 470.538 36.7491 530.183 37.5004C588.902 38.2517 638.704 88.5047 638.452 146.688C638.199 205.456 586.126 256.544 527.743 255.375V255.459Z" stroke="#1A1A1A" stroke-width="16" stroke-miterlimit="10" mask="url(#path-1-outside-1_82_2)"/>
  <path d="M919.919 8.09136C852.703 5.50357 778.083 57.7602 776.485 144.66C775.055 220.707 837.98 284.233 913.273 284.65C993.192 285.151 1054.69 225.382 1055.11 147.164C1055.36 70.4486 995.379 11.0965 919.919 8.09136ZM916.385 255.35C856.067 255.517 807.948 206.85 807.948 145.828C807.948 84.8066 856.656 37.1414 917.142 37.3918C975.946 37.6423 1025.58 87.144 1025.75 145.828C1026 205.013 975.778 255.183 916.385 255.35Z" stroke="#1A1A1A" stroke-width="16" stroke-miterlimit="10" mask="url(#path-1-outside-1_82_2)"/>
  <path d="M148.437 8.64347C87.026 4.38615 10.0514 53.721 8.03239 146.13C6.34988 221.176 70.9581 283.7 146.587 284.785C208.839 285.62 284.3 240.876 288.001 147.215C290.946 72.4199 225.749 8.64347 148.437 8.64347ZM147.765 255.234C88.7927 255.652 39.0747 205.566 39.1588 145.546C39.1588 86.1935 87.7833 37.5264 147.26 37.276C207.409 37.0256 256.959 86.1101 257.043 145.88C257.043 205.816 208.166 254.817 147.765 255.234Z" stroke="#1A1A1A" stroke-width="16" stroke-miterlimit="10" mask="url(#path-1-outside-1_82_2)"/>
  <path d="M1276.05 525.435V200.459H1401.91C1426.55 200.459 1449.35 204.549 1470.22 212.73C1491.08 220.911 1509.33 232.431 1524.98 247.29C1540.54 262.149 1552.83 279.512 1561.74 299.296C1570.66 319.08 1575.12 340.45 1575.12 363.406C1575.12 386.362 1570.75 407.983 1562 427.516C1553.25 447.05 1541.05 464.163 1525.23 478.855C1509.5 493.547 1491.16 504.983 1470.3 513.247C1449.44 521.428 1426.64 525.518 1401.99 525.518H1276.14L1276.05 525.435ZM1343.86 465.582H1400.98C1415.62 465.582 1429.25 462.994 1441.95 457.902C1454.57 452.81 1465.67 445.631 1475.18 436.281C1484.69 427.015 1492 416.163 1497.14 403.809C1502.27 391.454 1504.88 377.931 1504.88 363.406C1504.88 348.881 1502.18 335.358 1496.88 322.753C1491.58 310.231 1484.27 299.296 1474.93 290.03C1465.59 280.764 1454.57 273.502 1441.95 268.242C1429.33 262.983 1415.7 260.312 1400.98 260.312H1343.86V465.582Z" fill="#1A1A1A"/>
  <path d="M1648.9 254.875C1638.89 254.875 1630.31 251.286 1623.16 244.19C1616.01 237.095 1612.39 228.58 1612.39 218.646C1612.39 208.713 1616.01 199.864 1623.16 192.852C1630.31 185.924 1638.89 182.417 1648.9 182.417C1658.91 182.417 1667.83 185.924 1674.89 192.852C1681.88 199.781 1685.41 208.379 1685.41 218.646C1685.41 228.914 1681.88 237.095 1674.89 244.19C1667.91 251.286 1659.25 254.875 1648.9 254.875ZM1617.1 525.507V283.591H1681.2V525.507H1617.1Z" fill="#1A1A1A"/>
  <path d="M1853.87 625.099C1835.19 625.099 1817.02 623.179 1799.61 619.255C1782.11 615.415 1766.38 609.906 1752.33 602.81L1774.79 553.559C1788.16 560.07 1801.29 564.829 1814.08 567.917C1826.86 571.006 1839.65 572.592 1852.44 572.592C1871.45 572.592 1885.92 568.585 1895.68 560.488C1905.52 552.474 1910.4 540.369 1910.4 524.258V505.226C1890.46 519.751 1868.17 527.013 1843.52 527.013C1820.47 527.013 1799.61 521.504 1781.1 510.568C1762.51 499.549 1747.7 484.607 1736.68 465.741C1725.58 446.875 1720.11 426.006 1720.11 403.05C1720.11 380.094 1725.66 359.391 1736.68 340.86C1747.78 322.328 1762.84 307.552 1781.85 296.533C1800.87 285.514 1822.07 280.088 1845.45 280.088C1857.32 280.088 1868.84 281.758 1880.11 285.181C1891.3 288.603 1901.82 293.361 1911.49 299.539V283.761H1974.67V525.177C1974.67 557.065 1964.32 581.691 1943.54 598.97C1922.77 616.334 1892.9 624.932 1853.95 624.932L1853.87 625.099ZM1853.36 473.338C1865.22 473.338 1875.99 471.418 1885.67 467.494C1895.34 463.654 1903.58 458.145 1910.48 451.049V356.303C1903.58 349.458 1895.26 344.199 1885.41 340.275C1875.57 336.435 1865.05 334.432 1853.87 334.432C1840.49 334.432 1828.46 337.437 1817.86 343.448C1807.26 349.458 1798.85 357.722 1792.62 368.073C1786.4 378.425 1783.28 390.111 1783.28 403.133C1783.28 416.156 1786.31 428.344 1792.37 438.862C1798.43 449.38 1806.84 457.727 1817.61 463.905C1828.38 470.082 1840.32 473.171 1853.36 473.171V473.338Z" fill="#1A1A1A"/>
  <path d="M2056.45 254.875C2046.44 254.875 2037.86 251.286 2030.71 244.19C2023.56 237.095 2019.94 228.58 2019.94 218.646C2019.94 208.713 2023.56 199.864 2030.71 192.852C2037.86 185.924 2046.44 182.417 2056.45 182.417C2066.46 182.417 2075.38 185.924 2082.45 192.852C2089.43 199.781 2092.96 208.379 2092.96 218.646C2092.96 228.914 2089.43 237.095 2082.45 244.19C2075.46 251.286 2066.8 254.875 2056.45 254.875ZM2024.65 525.507V283.591H2088.76V525.507H2024.65Z" fill="#1A1A1A"/>
  <path d="M2143.01 525.435V200.459H2396.14V258.976H2210.9V335.608H2333.98V392.289H2210.9V525.518H2143.1L2143.01 525.435Z" fill="#1A1A1A"/>
  <path d="M2509.76 529.901C2485.45 529.901 2463.33 524.308 2443.56 513.205C2423.7 502.103 2408.06 487.078 2396.53 468.212C2385.01 449.346 2379.2 428.143 2379.2 404.602C2379.2 381.062 2384.75 359.859 2395.77 340.993C2406.88 322.127 2421.94 307.101 2440.95 295.999C2459.96 284.896 2481.16 279.303 2504.55 279.303C2527.94 279.303 2548.71 285.063 2566.8 296.499C2584.89 307.936 2599.19 323.463 2609.62 342.913C2620.05 362.446 2625.27 384.568 2625.27 409.277V425.972H2444.65C2447.43 435.572 2452.05 444.254 2458.45 451.934C2464.84 459.697 2472.83 465.707 2482.34 470.048C2491.85 474.389 2502.03 476.559 2512.96 476.559C2523.9 476.559 2533.91 474.89 2543.16 471.467C2552.33 468.044 2560.24 463.287 2566.8 457.109L2608.95 495.175C2593.97 507.279 2578.58 516.044 2562.85 521.637C2547.12 527.23 2529.37 529.984 2509.76 529.984V529.901ZM2562.17 380.394C2559.99 370.794 2556.03 362.363 2550.23 355.1C2544.42 347.838 2537.61 342.078 2529.62 337.904C2521.63 333.73 2512.88 331.643 2503.2 331.643C2493.53 331.643 2484.19 333.647 2476.03 337.654C2467.95 341.661 2461.14 347.337 2455.67 354.6C2450.2 361.862 2446.25 370.46 2443.73 380.394H2562.17Z" fill="#1A1A1A"/>
  <path d="M2664.61 525.498V283.582H2728.71V302.114C2746.21 286.671 2767.41 278.907 2792.31 278.907C2808.21 278.907 2822.43 282.079 2834.88 288.423C2847.33 294.768 2857.68 303.7 2865.75 315.136C2875.76 303.366 2887.54 294.434 2901.08 288.173C2914.63 281.996 2929.69 278.907 2946.26 278.907C2964.68 278.907 2980.83 282.998 2994.71 291.178C3008.6 299.359 3019.53 310.712 3027.44 325.07C3035.43 339.428 3039.39 356.29 3039.39 375.407V525.331H2975.79V384.672C2975.79 368.895 2971.58 356.457 2963.17 347.275C2954.76 338.176 2943.48 333.585 2929.52 333.585C2919.84 333.585 2911.01 335.588 2903.1 339.595C2895.11 343.602 2888.38 349.696 2882.74 357.709C2883.08 360.464 2883.33 363.302 2883.67 366.057C2884.01 368.812 2884.17 371.9 2884.17 375.323V525.248H2820.07V384.589C2820.07 368.812 2815.95 356.374 2807.7 347.191C2799.46 338.092 2788.27 333.501 2774.22 333.501C2764.55 333.501 2755.88 335.338 2748.23 339.094C2740.57 342.767 2734.1 348.36 2728.8 355.789V525.248H2664.69L2664.61 525.498Z" fill="#1A1A1A"/>
  <path d="M3088.1 525.498V283.582H3152.21V302.114C3169.71 286.671 3190.91 278.907 3215.81 278.907C3231.71 278.907 3245.92 282.079 3258.37 288.423C3270.82 294.768 3281.17 303.7 3289.25 315.136C3299.26 303.366 3311.04 294.434 3324.58 288.173C3338.12 281.996 3353.18 278.907 3369.76 278.907C3388.18 278.907 3404.33 282.998 3418.21 291.178C3432.09 299.359 3443.03 310.712 3450.94 325.07C3458.93 339.428 3462.88 356.29 3462.88 375.407V525.331H3399.28V384.672C3399.28 368.895 3395.08 356.457 3386.66 347.275C3378.25 338.176 3366.98 333.585 3353.01 333.585C3343.34 333.585 3334.51 335.588 3326.6 339.595C3318.61 343.602 3311.88 349.696 3306.24 357.709C3306.58 360.464 3306.83 363.302 3307.17 366.057C3307.5 368.812 3307.67 371.9 3307.67 375.323V525.248H3243.57V384.589C3243.57 368.812 3239.45 356.374 3231.2 347.191C3222.96 338.092 3211.77 333.501 3197.72 333.501C3188.04 333.501 3179.38 335.338 3171.72 339.094C3164.07 342.767 3157.59 348.36 3152.29 355.789V525.248H3088.19L3088.1 525.498Z" fill="#1A1A1A"/>
  <path d="M3630.76 530.029C3606.45 530.029 3584.33 524.436 3564.56 513.333C3544.7 502.231 3529.06 487.206 3517.53 468.34C3506.01 449.474 3500.2 428.271 3500.2 404.73C3500.2 381.19 3505.75 359.987 3516.78 341.121C3527.88 322.255 3542.94 307.229 3561.95 296.127C3580.96 285.024 3602.16 279.431 3625.55 279.431C3648.94 279.431 3669.72 285.191 3687.8 296.627C3705.89 308.064 3720.19 323.591 3730.62 343.041C3741.05 362.574 3746.27 384.696 3746.27 409.405V426.1H3565.65C3568.43 435.7 3573.06 444.382 3579.45 452.062C3585.84 459.825 3593.83 465.835 3603.34 470.176C3612.85 474.517 3623.03 476.687 3633.96 476.687C3644.9 476.687 3654.91 475.017 3664.16 471.595C3673.33 468.172 3681.24 463.414 3687.8 457.237L3729.95 495.303C3714.97 507.407 3699.58 516.172 3683.85 521.765C3668.12 527.358 3650.37 530.112 3630.76 530.112V530.029ZM3683.18 380.522C3680.99 370.922 3677.03 362.491 3671.23 355.228C3665.43 347.966 3658.61 342.206 3650.62 338.032C3642.63 333.858 3633.88 331.771 3624.2 331.771C3614.53 331.771 3605.19 333.775 3597.03 337.782C3588.96 341.789 3582.14 347.465 3576.67 354.728C3571.2 361.99 3567.25 370.588 3564.73 380.522H3683.18Z" fill="#1A1A1A"/>
  <path d="M3879.25 530.196C3856.78 530.196 3836 527.358 3816.99 521.598C3797.98 515.838 3781.41 507.574 3767.36 496.722L3799.16 454.482C3813.21 463.748 3826.67 470.76 3839.62 475.351C3852.58 480.026 3865.45 482.28 3878.24 482.28C3892.62 482.28 3904.06 479.859 3912.64 475.101C3921.22 470.343 3925.51 463.999 3925.51 456.319C3925.51 450.141 3923.07 445.216 3918.28 441.46C3913.4 437.787 3905.75 435.116 3895.15 433.53L3848.37 426.601C3824.06 422.928 3805.64 415.081 3793.19 403.144C3780.74 391.207 3774.51 375.513 3774.51 356.063C3774.51 340.286 3778.63 326.763 3786.88 315.41C3795.12 304.14 3806.81 295.292 3821.96 288.948C3837.1 282.603 3855.1 279.431 3875.96 279.431C3893.72 279.431 3911.13 281.936 3928.12 286.861C3945.12 291.786 3961.1 299.382 3976.07 309.65L3945.2 350.971C3931.82 342.623 3919.04 336.613 3906.84 332.856C3894.64 329.1 3882.36 327.264 3869.91 327.264C3858.38 327.264 3849.04 329.434 3842.06 333.775C3835.08 338.116 3831.55 343.875 3831.55 350.971C3831.55 357.482 3834.07 362.574 3839.03 366.33C3844 370.087 3852.58 372.675 3864.78 374.261L3911.13 381.19C3935.44 384.612 3954.03 392.292 3966.82 404.146C3979.61 416.083 3986 431.442 3986 450.308C3986 465.751 3981.29 479.525 3971.95 491.379C3962.61 503.316 3950 512.749 3934.1 519.678C3918.2 526.607 3899.94 530.113 3879.33 530.113L3879.25 530.196Z" fill="#1A1A1A"/>
  <path d="M1387.9 863.641C1371.91 863.641 1357.02 860.886 1343.06 855.293C1329.18 849.7 1316.98 841.937 1306.72 832.003C1296.37 822.069 1288.29 810.466 1282.49 797.11C1276.69 783.837 1273.74 769.479 1273.74 754.036C1273.74 738.592 1276.69 723.9 1282.49 710.628C1288.29 697.355 1296.45 685.668 1306.89 675.734C1317.32 665.8 1329.43 658.037 1343.23 652.444C1357.02 646.851 1371.91 644.097 1387.9 644.097C1399.76 644.097 1411.2 645.682 1422.31 648.938C1433.33 652.194 1443.67 656.785 1453.18 662.628C1462.69 668.555 1470.85 675.651 1477.58 683.915L1447.46 713.466C1439.72 703.95 1430.72 696.687 1420.62 691.845C1410.53 687.004 1399.59 684.499 1387.9 684.499C1378.31 684.499 1369.31 686.252 1360.89 689.842C1352.48 693.431 1345.25 698.273 1339.11 704.45C1332.96 710.628 1328.17 717.974 1324.64 726.405C1321.19 734.836 1319.42 744.018 1319.42 753.952C1319.42 763.886 1321.19 772.818 1324.64 781.249C1328.09 789.68 1333.05 797.026 1339.36 803.204C1345.67 809.381 1353.15 814.222 1361.65 817.645C1370.15 821.068 1379.4 822.821 1389.41 822.821C1400.69 822.821 1411.2 820.484 1421.04 815.809C1430.89 811.134 1439.55 804.456 1447.12 795.691L1476.31 824.323C1469.58 832.42 1461.51 839.433 1452.09 845.359C1442.66 851.286 1432.49 855.794 1421.55 858.883C1410.61 862.055 1399.42 863.641 1387.9 863.641Z" fill="#1A1A1A"/>
  <path d="M1573.03 863.672C1557.05 863.672 1542.66 859.999 1529.79 852.737C1516.92 845.391 1506.66 835.54 1499.09 823.186C1491.51 810.831 1487.73 796.89 1487.73 781.447C1487.73 766.004 1491.43 752.064 1498.92 739.542C1506.4 727.021 1516.58 717.17 1529.62 709.824C1542.58 702.478 1557.13 698.889 1573.03 698.889C1588.93 698.889 1603.48 702.562 1616.44 709.824C1629.4 717.17 1639.66 727.021 1647.15 739.542C1654.63 752.064 1658.33 766.004 1658.33 781.447C1658.33 796.89 1654.63 810.831 1647.15 823.186C1639.66 835.54 1629.48 845.391 1616.61 852.737C1603.74 860.083 1589.18 863.672 1573.03 863.672ZM1595.07 676.35L1572.36 653.811L1549.98 676.35H1516.25L1551.58 634.945H1594.57L1629.9 676.35H1595.07ZM1573.03 827.443C1581.44 827.443 1588.93 825.44 1595.58 821.349C1602.22 817.259 1607.52 811.75 1611.56 804.738C1615.6 797.726 1617.53 789.962 1617.53 781.447C1617.53 772.933 1615.51 764.919 1611.56 757.99C1607.61 751.062 1602.22 745.552 1595.58 741.378C1588.93 737.205 1581.44 735.118 1573.03 735.118C1564.62 735.118 1557.38 737.205 1550.65 741.378C1543.92 745.552 1538.54 751.062 1534.67 757.99C1530.8 764.919 1528.87 772.682 1528.87 781.447C1528.87 790.212 1530.8 797.726 1534.67 804.738C1538.54 811.75 1543.84 817.259 1550.65 821.349C1557.38 825.44 1564.87 827.443 1573.03 827.443Z" fill="#1A1A1A"/>
  <path d="M1753.48 863.493C1735.65 863.493 1722.19 859.486 1713.1 851.472C1704.02 843.458 1699.48 831.688 1699.48 816.328V737.109H1666.67V702.382H1699.48V661.896L1741.54 652.463V702.382H1787.3V737.109H1741.54V807.814C1741.54 815.16 1743.14 820.335 1746.42 823.508C1749.7 826.68 1755.42 828.265 1763.58 828.265C1767.7 828.265 1771.4 828.015 1774.77 827.514C1778.13 827.013 1781.92 826.012 1785.96 824.593V858.985C1781.67 860.404 1776.28 861.489 1769.8 862.324C1763.33 863.159 1757.86 863.576 1753.4 863.576L1753.48 863.493Z" fill="#1A1A1A"/>
  <path d="M1884.34 863.725C1868.35 863.725 1853.88 860.052 1840.93 852.789C1827.97 845.443 1817.63 835.593 1810.05 823.238C1802.48 810.883 1798.7 796.943 1798.7 781.499C1798.7 766.056 1802.31 752.199 1809.63 739.761C1816.87 727.406 1826.79 717.556 1839.25 710.21C1851.7 702.864 1865.66 699.275 1880.97 699.275C1896.28 699.275 1909.91 703.031 1921.77 710.544C1933.63 718.057 1942.97 728.241 1949.87 741.013C1956.68 753.785 1960.13 768.311 1960.13 784.589V795.524H1841.68C1843.54 801.785 1846.56 807.545 1850.77 812.553C1854.98 817.645 1860.19 821.569 1866.42 824.407C1872.64 827.245 1879.37 828.664 1886.52 828.664C1893.67 828.664 1900.32 827.579 1906.29 825.325C1912.35 823.071 1917.48 819.983 1921.77 815.892L1949.37 840.852C1939.52 848.782 1929.43 854.542 1919.16 858.215C1908.82 861.888 1897.21 863.725 1884.34 863.725ZM1918.66 765.639C1917.23 759.378 1914.62 753.786 1910.84 749.027C1907.05 744.269 1902.51 740.512 1897.29 737.758C1892.08 735.003 1886.27 733.667 1879.96 733.667C1873.65 733.667 1867.51 735.003 1862.13 737.591C1856.83 740.262 1852.37 743.935 1848.75 748.693C1845.13 753.451 1842.53 759.128 1840.93 765.639H1918.66Z" fill="#1A1A1A"/>
  <path d="M2121.57 862.863C2106.43 862.863 2092.72 859.19 2080.44 851.927C2068.15 844.665 2058.4 834.814 2051.16 822.543C2043.93 810.272 2040.22 796.498 2040.22 781.305C2040.22 766.113 2043.84 752.339 2051.16 740.068C2058.4 727.797 2068.32 718.03 2080.77 710.851C2093.22 703.672 2107.27 699.999 2122.84 699.999C2130.83 699.999 2138.48 701.084 2145.89 703.171C2153.29 705.342 2160.1 708.43 2166.41 712.437V647.575L2208.48 640.563V860.776H2167V847.67C2153.88 857.854 2138.74 862.863 2121.57 862.863ZM2128.39 827.218C2136.13 827.218 2143.28 825.965 2149.76 823.378C2156.23 820.873 2161.79 817.033 2166.5 811.941V750.085C2161.79 745.41 2156.15 741.737 2149.59 739.15C2143.03 736.478 2135.96 735.226 2128.39 735.226C2119.55 735.226 2111.65 737.23 2104.58 741.153C2097.51 745.076 2091.96 750.586 2087.84 757.598C2083.72 764.61 2081.7 772.457 2081.7 781.222C2081.7 789.987 2083.72 797.75 2087.84 804.679C2091.96 811.607 2097.51 817.034 2104.58 821.124C2111.65 825.214 2119.55 827.218 2128.39 827.218Z" fill="#1A1A1A"/>
  <path d="M2233.92 715.083L2254.78 634.945H2298.36L2265.55 715.083H2233.92Z" fill="#1A1A1A"/>
  <path d="M2324.25 860.564V647.363H2368.75V860.564H2324.25Z" fill="#1A1A1A"/>
  <path d="M2456.76 860.841L2388.28 702.151H2434.05L2477.96 807.832L2521.54 702.151H2566.38L2497.65 860.841H2456.76Z" fill="#1A1A1A"/>
  <path d="M2656.35 863.663C2640.36 863.663 2625.98 859.99 2613.11 852.727C2600.24 845.465 2589.97 835.531 2582.4 823.176C2574.83 810.822 2571.04 796.881 2571.04 781.438C2571.04 765.994 2574.75 752.054 2582.23 739.533C2589.72 727.011 2599.9 717.161 2612.94 709.815C2625.89 702.469 2640.45 698.879 2656.35 698.879C2672.25 698.879 2686.8 702.552 2699.76 709.815C2712.71 717.161 2722.97 727.011 2730.46 739.533C2737.95 752.054 2741.65 765.994 2741.65 781.438C2741.65 796.881 2737.95 810.822 2730.46 823.176C2722.97 835.531 2712.8 845.381 2699.92 852.727C2687.05 860.073 2672.5 863.663 2656.35 863.663ZM2656.35 827.434C2664.76 827.434 2672.25 825.43 2678.89 821.34C2685.54 817.25 2690.84 811.74 2694.88 804.728C2698.92 797.716 2700.85 789.952 2700.85 781.438C2700.85 772.923 2698.83 764.909 2694.88 757.981C2690.92 751.052 2685.54 745.543 2678.89 741.369C2672.25 737.195 2664.76 735.108 2656.35 735.108C2647.94 735.108 2640.7 737.195 2633.97 741.369C2627.24 745.543 2621.86 751.052 2617.99 757.981C2614.12 764.909 2612.18 772.673 2612.18 781.438C2612.18 790.203 2614.12 797.716 2617.99 804.728C2621.86 811.74 2627.16 817.25 2633.97 821.34C2640.7 825.43 2648.19 827.434 2656.35 827.434Z" fill="#1A1A1A"/>
  <path d="M2788.39 682.789C2781.83 682.789 2776.19 680.452 2771.48 675.777C2766.77 671.103 2764.41 665.509 2764.41 658.998C2764.41 652.487 2766.77 646.643 2771.48 642.052C2776.19 637.461 2781.83 635.207 2788.39 635.207C2794.95 635.207 2800.84 637.461 2805.46 642.052C2810.09 646.643 2812.36 652.237 2812.36 658.998C2812.36 665.76 2810.09 671.103 2805.46 675.777C2800.84 680.452 2795.2 682.789 2788.39 682.789ZM2767.52 860.428V701.738H2809.59V860.428H2767.52Z" fill="#1A1A1A"/>
  <path d="M2842.29 860.98V702.291H2884.35V719.988C2889.48 713.059 2895.62 707.8 2902.77 704.127C2909.92 700.454 2918 698.618 2927 698.618C2934.74 698.785 2940.63 700.037 2944.5 702.291V738.854C2941.47 737.435 2938.02 736.349 2934.4 735.681C2930.7 735.014 2926.92 734.596 2923.05 734.596C2914.89 734.596 2907.4 736.599 2900.67 740.69C2893.94 744.78 2888.47 750.54 2884.43 758.053V860.98H2842.29Z" fill="#1A1A1A"/>
  <path d="M3039.33 863.725C3023.35 863.725 3008.88 860.052 2995.92 852.789C2982.97 845.443 2972.62 835.593 2965.05 823.238C2957.48 810.883 2953.69 796.943 2953.69 781.499C2953.69 766.056 2957.31 752.199 2964.63 739.761C2971.86 727.406 2981.79 717.556 2994.24 710.21C3006.69 702.864 3020.66 699.275 3035.97 699.275C3051.28 699.275 3064.91 703.031 3076.77 710.544C3088.63 718.057 3097.97 728.241 3104.87 741.013C3111.68 753.785 3115.13 768.311 3115.13 784.589V795.524H2996.68C2998.53 801.785 3001.56 807.545 3005.77 812.553C3009.97 817.645 3015.19 821.569 3021.41 824.407C3027.64 827.245 3034.37 828.664 3041.52 828.664C3048.67 828.664 3055.32 827.579 3061.29 825.325C3067.35 823.071 3072.48 819.983 3076.77 815.892L3104.36 840.852C3094.52 848.782 3084.42 854.542 3074.16 858.215C3063.81 861.888 3052.2 863.725 3039.33 863.725ZM3073.74 765.639C3072.31 759.378 3069.7 753.786 3065.92 749.027C3062.13 744.269 3057.59 740.512 3052.37 737.758C3047.16 735.003 3041.35 733.667 3035.04 733.667C3028.73 733.667 3022.59 735.003 3017.21 737.591C3011.91 740.262 3007.45 743.935 3003.83 748.693C3000.21 753.451 2997.61 759.128 2996.01 765.639H3073.74Z" fill="#1A1A1A"/>
  <!-- Tagline -->
  <text x="1276" y="1050" font-family="'Clash Display', 'Red Hat Display', sans-serif" font-size="90" font-weight="600" letter-spacing="8" fill="#1A1A1A">WE CAN DO</text>
  <text x="2145" y="1050" font-family="'Clash Display', 'Red Hat Display', sans-serif" font-size="90" font-weight="700" letter-spacing="8" fill="#1A1A1A">MORE</text>
</svg>